<?xml version="1.0" standalone="no"?><!DOCTYPE svg PUBLIC "-//W3C//DTD SVG 1.1//EN" "http://www.w3.org/Graphics/SVG/1.1/DTD/svg11.dtd"><svg t="1728887648839" class="icon" viewBox="0 0 1024 1024" version="1.1" xmlns="http://www.w3.org/2000/svg" p-id="13946" xmlns:xlink="http://www.w3.org/1999/xlink" width="256" height="256"><path d="M883.912833 768.991768V258.727361L442.080387 3.719128 0.247942 258.727361v510.264407L442.080387 1024z" fill="#FFFFFF" p-id="13947"></path><path d="M805.439225 949.245521l218.312833-242.115255H887.755932V555.389831h-163.641646v151.740435H588.242131z" fill="#B1482C" p-id="13948"></path><path d="M805.935109 336.829056l-23.554479-40.786441-340.300243 196.493947L101.780145 296.042615l-23.554479 40.786441 340.300242 196.493946v389.640678h47.108959V533.323002z" fill="#666666" p-id="13949"></path><path d="M522.909443 922.96368l-80.829056 46.737046L47.356901 741.71816V286.000969L442.080387 58.142373l394.723487 227.858596v227.858595h47.108959V258.727361L442.080387 3.719128 0.247942 258.727361v510.264407L442.080387 1024l240.13172-138.599516L648.615981 846.72155z" fill="#666666" p-id="13950"></path><path d="M588.242131 971.560291h435.261985V1024H588.242131z" fill="#B1482C" p-id="13951"></path></svg>