<?xml version="1.0" standalone="no"?><!DOCTYPE svg PUBLIC "-//W3C//DTD SVG 1.1//EN" "http://www.w3.org/Graphics/SVG/1.1/DTD/svg11.dtd"><svg t="1728875482076" class="icon" viewBox="0 0 1024 1024" version="1.1" xmlns="http://www.w3.org/2000/svg" p-id="9213" xmlns:xlink="http://www.w3.org/1999/xlink" width="256" height="256"><path d="M676.608 736v179.2c0 23.936-23.04 43.648-52.48 44.8-29.184 1.024-54.4-16.896-57.088-40.704L546.688 736h129.92z m-199.296 0l-20.48 183.296c-2.56 23.808-27.776 41.728-57.088 40.704-29.184-1.152-52.352-20.864-52.352-44.8v-179.2H477.44z m391.296-425.6c15.104 0 27.392 9.984 27.392 22.4v336c0 12.416-12.288 22.4-27.392 22.4H155.392C140.288 691.2 128 681.216 128 668.8V332.8c0-12.416 12.288-22.4 27.392-22.4h713.216z m-329.216 44.8h-54.784v33.536h-13.696c-25.6 0-53.248 6.784-72.96 12.672a448 448 0 0 0-17.92 5.76l-7.04 2.56a380.544 380.544 0 0 0-9.472 3.456c-0.896 0.384-0.896 0.384 11.392 20.48l11.264 18.432 0.896 1.536 1.92-0.768a289.024 289.024 0 0 1 27.776-9.472c18.176-5.376 38.4-9.856 54.144-9.856h13.696v44.8h-22.016c-32.768 0-67.2 14.336-90.24 25.6a407.68 407.68 0 0 0-21.76 11.776l-8.448 4.864a361.472 361.472 0 0 0-11.264 7.168c-0.768 0.512-0.896 0.512 0.384 1.92l5.12 4.992 4.608 4.608 6.4 6.4 11.136 10.88 5.12 4.864 0.896 1.024 2.816-1.28a292.352 292.352 0 0 1 33.28-18.816c22.272-11.008 45.44-19.2 61.952-19.2h22.016v48.64c-19.2 4.352-37.76 12.16-52.736 20.864a126.72 126.72 0 0 0-28.8 22.4 47.872 47.872 0 0 0-14.464 31.36h54.784c0.256 0 0.896-1.536 3.456-4.352a75.52 75.52 0 0 1 17.024-12.928c15.36-8.96 34.048-15.36 49.024-16.256a104.192 104.192 0 0 1 64 28.8c2.688 2.944 3.456 4.736 3.584 5.12l55.04-0.384a48.64 48.64 0 0 0-14.848-31.616 130.432 130.432 0 0 0-29.056-22.912 179.712 179.712 0 0 0-52.224-20.736v-48h30.208a124.16 124.16 0 0 1 59.392 18.432 190.72 190.72 0 0 1 26.88 18.816l6.912-4.608 6.272-4.608 7.552-5.632 19.84-14.592a9.6 9.6 0 0 0-2.56-2.944 245.504 245.504 0 0 0-33.536-23.168 186.24 186.24 0 0 0-90.752-26.496h-30.208v-44.8h20.608c19.072 0 37.504 4.608 51.968 9.472 7.04 2.56 12.8 4.864 16.64 6.656l4.352 2.048c1.024 0.512 1.024 0.512 10.496-11.264l5.632-6.912 15.36-18.56a131.2 131.2 0 0 0-9.088-4.48 228.608 228.608 0 0 0-95.36-21.76h-20.48v-33.536zM512 64c68.224 0 123.392 48.384 123.392 108.032 0 59.776-55.168 108.16-123.392 108.16-68.224 0-123.392-48.384-123.392-108.16C388.608 112.384 443.776 64 512 64z" fill="#333333" p-id="9214"></path></svg>